<svg xmlns="http://www.w3.org/2000/svg" xmlns:xlink="http://www.w3.org/1999/xlink" width="132" height="132" viewBox="0 0 132 132">
  <defs>
    <clipPath id="clip-path">
      <rect id="Rectangle_15" data-name="Rectangle 15" width="132" height="132" rx="20" transform="translate(1064 655)" fill="#f6f6f6"/>
    </clipPath>
  </defs>
  <g id="Mask_Group_5" data-name="Mask Group 5" transform="translate(-1064 -655)" clip-path="url(#clip-path)">
    <g id="Car" transform="translate(1045.694 653.337)">
      <g id="Group_193" data-name="Group 193">
        <g id="Group_189" data-name="Group 189">
          <g id="Group_38" data-name="Group 38">
            <g id="Group_35" data-name="Group 35">
              <g id="Group_34" data-name="Group 34">
                <rect id="Rectangle_19" data-name="Rectangle 19" width="116.084" height="17.033" transform="translate(25.578 64.676)" fill="#e8505b"/>
              </g>
            </g>
            <g id="Group_37" data-name="Group 37" opacity="0.5">
              <g id="Group_36" data-name="Group 36">
                <rect id="Rectangle_20" data-name="Rectangle 20" width="116.084" height="17.033" transform="translate(25.578 64.676)"/>
              </g>
            </g>
          </g>
          <g id="Group_69" data-name="Group 69">
            <g id="Group_44" data-name="Group 44">
              <g id="Group_43" data-name="Group 43">
                <g id="Group_42" data-name="Group 42">
                  <g id="Group_41" data-name="Group 41">
                    <g id="Group_40" data-name="Group 40">
                      <g id="Group_39" data-name="Group 39">
                        <circle id="Ellipse_8" data-name="Ellipse 8" cx="11.193" cy="11.193" r="11.193" transform="translate(29.253 71.175) rotate(-3.848)" fill="#263238"/>
                      </g>
                    </g>
                  </g>
                </g>
              </g>
            </g>
            <g id="Group_50" data-name="Group 50">
              <g id="Group_49" data-name="Group 49">
                <g id="Group_48" data-name="Group 48">
                  <g id="Group_47" data-name="Group 47">
                    <g id="Group_46" data-name="Group 46">
                      <g id="Group_45" data-name="Group 45">
                        <path id="Path_126" data-name="Path 126" d="M29.987,81.4c0,.01,0,.019,0,.029a11.194,11.194,0,0,0,22.385.322c0-.01,0-.019,0-.029Z" fill="#263238"/>
                      </g>
                    </g>
                  </g>
                </g>
              </g>
            </g>
            <g id="Group_56" data-name="Group 56">
              <g id="Group_55" data-name="Group 55">
                <g id="Group_54" data-name="Group 54">
                  <g id="Group_53" data-name="Group 53">
                    <g id="Group_52" data-name="Group 52">
                      <g id="Group_51" data-name="Group 51">
                        <path id="Path_127" data-name="Path 127" d="M33.319,81.482a7.858,7.858,0,1,0,7.972-7.744A7.859,7.859,0,0,0,33.319,81.482Z" fill="#fafafa"/>
                      </g>
                    </g>
                  </g>
                </g>
              </g>
            </g>
            <g id="Group_62" data-name="Group 62">
              <g id="Group_61" data-name="Group 61">
                <g id="Group_60" data-name="Group 60">
                  <g id="Group_59" data-name="Group 59">
                    <g id="Group_58" data-name="Group 58">
                      <g id="Group_57" data-name="Group 57">
                        <path id="Path_128" data-name="Path 128" d="M41.289,73.738a7.859,7.859,0,0,0-7.972,7.744l15.715.226A7.854,7.854,0,0,0,41.289,73.738Z" fill="#e0e0e0"/>
                      </g>
                    </g>
                  </g>
                </g>
              </g>
            </g>
            <g id="Group_68" data-name="Group 68">
              <g id="Group_67" data-name="Group 67">
                <g id="Group_66" data-name="Group 66">
                  <g id="Group_65" data-name="Group 65">
                    <g id="Group_64" data-name="Group 64">
                      <g id="Group_63" data-name="Group 63">
                        <path id="Path_129" data-name="Path 129" d="M36.391,81.526a4.788,4.788,0,1,0,4.856-4.718A4.789,4.789,0,0,0,36.391,81.526Z" fill="#263238"/>
                      </g>
                    </g>
                  </g>
                </g>
              </g>
            </g>
          </g>
          <g id="Group_100" data-name="Group 100">
            <g id="Group_75" data-name="Group 75">
              <g id="Group_74" data-name="Group 74">
                <g id="Group_73" data-name="Group 73">
                  <g id="Group_72" data-name="Group 72">
                    <g id="Group_71" data-name="Group 71">
                      <g id="Group_70" data-name="Group 70">
                        <circle id="Ellipse_9" data-name="Ellipse 9" cx="11.193" cy="11.193" r="11.193" transform="translate(114.944 71.068) rotate(-3.314)" fill="#263238"/>
                      </g>
                    </g>
                  </g>
                </g>
              </g>
            </g>
            <g id="Group_81" data-name="Group 81">
              <g id="Group_80" data-name="Group 80">
                <g id="Group_79" data-name="Group 79">
                  <g id="Group_78" data-name="Group 78">
                    <g id="Group_77" data-name="Group 77">
                      <g id="Group_76" data-name="Group 76">
                        <path id="Path_130" data-name="Path 130" d="M115.582,81.4c0,.01,0,.019,0,.029a11.194,11.194,0,0,0,22.385.322c0-.01,0-.019,0-.029Z" fill="#263238"/>
                      </g>
                    </g>
                  </g>
                </g>
              </g>
            </g>
            <g id="Group_87" data-name="Group 87">
              <g id="Group_86" data-name="Group 86">
                <g id="Group_85" data-name="Group 85">
                  <g id="Group_84" data-name="Group 84">
                    <g id="Group_83" data-name="Group 83">
                      <g id="Group_82" data-name="Group 82">
                        <path id="Path_131" data-name="Path 131" d="M118.915,81.482a7.858,7.858,0,1,0,7.972-7.744A7.859,7.859,0,0,0,118.915,81.482Z" fill="#fafafa"/>
                      </g>
                    </g>
                  </g>
                </g>
              </g>
            </g>
            <g id="Group_93" data-name="Group 93">
              <g id="Group_92" data-name="Group 92">
                <g id="Group_91" data-name="Group 91">
                  <g id="Group_90" data-name="Group 90">
                    <g id="Group_89" data-name="Group 89">
                      <g id="Group_88" data-name="Group 88">
                        <path id="Path_132" data-name="Path 132" d="M126.884,73.738a7.859,7.859,0,0,0-7.972,7.744l15.715.226A7.854,7.854,0,0,0,126.884,73.738Z" fill="#e0e0e0"/>
                      </g>
                    </g>
                  </g>
                </g>
              </g>
            </g>
            <g id="Group_99" data-name="Group 99">
              <g id="Group_98" data-name="Group 98">
                <g id="Group_97" data-name="Group 97">
                  <g id="Group_96" data-name="Group 96">
                    <g id="Group_95" data-name="Group 95">
                      <g id="Group_94" data-name="Group 94">
                        <path id="Path_133" data-name="Path 133" d="M121.986,81.526a4.788,4.788,0,1,0,4.856-4.718A4.789,4.789,0,0,0,121.986,81.526Z" fill="#263238"/>
                      </g>
                    </g>
                  </g>
                </g>
              </g>
            </g>
          </g>
          <g id="Group_102" data-name="Group 102">
            <g id="Group_101" data-name="Group 101">
              <path id="Path_134" data-name="Path 134" d="M55.849,55.094S39.366,56.309,33.257,57.68c-4.306.967-12.608,2.632-12.508,7.856l.659,3.743a5.636,5.636,0,0,0-3.08,5c0,3.588-.751,9.158,6.436,9.38,1.184.038,3.436,0,3.436,0S26.819,68.346,40.885,67.9c14.309-.456,13.359,15.619,13.359,15.619h59.72s-2.45-15.661,12.953-15.682,13.056,15.784,13.056,15.784,5.666.49,8.3-4.272,1.95-8.152,1.95-8.152l-.088-3.011a1.95,1.95,0,0,0-1.873-1.891h0s1.029-7.58-.55-8.892-10.235-9.225-10.235-9.225l.412-.259a.971.971,0,0,0-.2-1.741c-3.287-1.13-9.786-3.366-11.313-3.9a2.837,2.837,0,0,0-.709-.149c-.912-.069-3.492-.234-8.231-.285-5.773-.061-28.691,0-28.691,0s-7.888.649-12.282,2.584C71.845,46.459,55.849,55.094,55.849,55.094Z" fill="#e8505b"/>
            </g>
          </g>
          <g id="Group_105" data-name="Group 105" opacity="0.4">
            <g id="Group_104" data-name="Group 104">
              <g id="Group_103" data-name="Group 103">
                <path id="Path_135" data-name="Path 135" d="M22.507,73.859a2.536,2.536,0,0,0-1.971.272,1.875,1.875,0,0,0-.479,1.237,5.264,5.264,0,0,0,.042,1.856A2.266,2.266,0,0,0,21.145,78.7a1.461,1.461,0,0,0,1.722-.205,2.24,2.24,0,0,0,.423-1.607,13,13,0,0,0-.1-2.285,1.146,1.146,0,0,0-.205-.46.636.636,0,0,0-.479-.287"/>
              </g>
            </g>
          </g>
          <g id="Group_107" data-name="Group 107">
            <g id="Group_106" data-name="Group 106">
              <path id="Path_136" data-name="Path 136" d="M21.408,69.279c1.749,0,3.446-.1,5.193-.213a.637.637,0,0,0,.713-.8,3.3,3.3,0,0,0-.749-2.615,2.832,2.832,0,0,0-1.6-.544,10.372,10.372,0,0,0-4.216.425Z" fill="#fafafa"/>
            </g>
          </g>
          <g id="Group_110" data-name="Group 110">
            <g id="Group_109" data-name="Group 109">
              <g id="Group_108" data-name="Group 108">
                <path id="Path_137" data-name="Path 137" d="M57.741,83.036s-.006-.05-.015-.149-.017-.249-.029-.439c-.021-.389-.052-.958-.092-1.688s-.09-1.63-.195-2.668a21.09,21.09,0,0,0-.617-3.479,15.862,15.862,0,0,0-1.684-3.925,12.311,12.311,0,0,0-3.256-3.632,18.941,18.941,0,0,0-10.627-3.193,17.215,17.215,0,0,0-10.551,3.323,15.446,15.446,0,0,0-3.425,3.5,16.458,16.458,0,0,0-2,3.772,15.392,15.392,0,0,0-.847,3.425,14.376,14.376,0,0,0-.1,2.666,13.233,13.233,0,0,0,.205,1.674c.033.188.061.333.077.433s.023.149.023.149-.013-.048-.033-.146-.05-.245-.09-.431a12.863,12.863,0,0,1-.226-1.676,14.28,14.28,0,0,1,.084-2.674,15.366,15.366,0,0,1,.835-3.444,16.562,16.562,0,0,1,2-3.8,15.491,15.491,0,0,1,3.44-3.523,17.3,17.3,0,0,1,10.614-3.352,19.011,19.011,0,0,1,10.685,3.22,12.4,12.4,0,0,1,3.274,3.666,15.8,15.8,0,0,1,1.682,3.95,20.775,20.775,0,0,1,.6,3.494c.1,1.04.142,1.937.176,2.672s.054,1.3.071,1.691q.013.286.019.439C57.743,82.984,57.741,83.036,57.741,83.036Z" fill="#fff"/>
              </g>
            </g>
          </g>
          <g id="Group_113" data-name="Group 113">
            <g id="Group_112" data-name="Group 112">
              <g id="Group_111" data-name="Group 111">
                <path id="Path_138" data-name="Path 138" d="M58.375,83.3s0-.042-.006-.126-.008-.209-.013-.37c-.01-.328-.025-.814-.044-1.446-.036-1.268-.09-3.126-.157-5.486s-.142-5.231-.232-8.516q-.035-1.233-.069-2.542a8.623,8.623,0,0,1,.056-1.329c.031-.224.063-.448.1-.674s.092-.448.138-.676a13.684,13.684,0,0,1,.931-2.68,13.391,13.391,0,0,1,1.534-2.546l0-.006.006,0L70.962,50.38l2.793-1.76a21.944,21.944,0,0,1,2.956-1.651,30.528,30.528,0,0,1,3.21-1.283c.55-.192,1.113-.351,1.676-.519.569-.144,1.136-.305,1.718-.423A39.2,39.2,0,0,1,89.98,43.9a63.112,63.112,0,0,1,6.453.021l.061,0-.013.061c-.99,4.427-1.923,8.6-2.779,12.43l0,.008,0,.008a13.588,13.588,0,0,0-1.247,2.67,7.3,7.3,0,0,0-.423,2.764c.071.919.1,1.818.119,2.689s.033,1.72.05,2.54c.048,3.285.061,6.149.069,8.511s0,4.214.006,5.482c0,.632,0,1.115-.006,1.446,0,.163,0,.285,0,.37s0,.126,0,.126,0-.042,0-.126,0-.209,0-.37c0-.328,0-.814-.008-1.446-.008-1.268-.019-3.124-.031-5.482s-.038-5.227-.092-8.509q-.025-1.23-.054-2.54c-.025-.872-.052-1.768-.123-2.684a7.374,7.374,0,0,1,.423-2.8,13.617,13.617,0,0,1,1.253-2.693l-.006.015c.852-3.829,1.783-8.005,2.768-12.432l.048.065a62.876,62.876,0,0,0-6.44-.019,39.168,39.168,0,0,0-6.647.839c-.58.115-1.144.278-1.711.421-.561.167-1.121.324-1.67.517a30.32,30.32,0,0,0-3.2,1.276,21.826,21.826,0,0,0-2.942,1.642q-1.415.891-2.8,1.758c-3.678,2.312-7.153,4.5-10.35,6.507l.01-.01a13.312,13.312,0,0,0-1.523,2.525,13.512,13.512,0,0,0-.929,2.661,19.4,19.4,0,0,0-.23,5.2c.082,3.285.153,6.153.211,8.516s.1,4.218.13,5.486c.013.632.023,1.117.031,1.446q0,.245.006.37C58.377,83.254,58.375,83.3,58.375,83.3Z" fill="#263238"/>
              </g>
            </g>
          </g>
          <g id="Group_116" data-name="Group 116">
            <g id="Group_115" data-name="Group 115">
              <g id="Group_114" data-name="Group 114">
                <path id="Path_139" data-name="Path 139" d="M96.36,44.281s.033,0,.1-.006l.289-.01,1.111-.027c.971-.019,2.375-.046,4.12-.082,3.5-.061,8.375-.142,13.889-.236h.025l.017.021c.623.764,1.278,1.567,1.946,2.383l5.557,6.815.632.776a4.311,4.311,0,0,1,.935,2.653,4.329,4.329,0,0,1-.337,1.711q-.33.769-.634,1.475L122.086,64.2c-.228.521-.4.927-.527,1.205-.061.134-.107.239-.14.312s-.05.1-.05.1.013-.038.04-.109.073-.18.13-.316c.117-.282.289-.69.508-1.214.448-1.057,1.092-2.578,1.889-4.457a7.881,7.881,0,0,0,.95-3.155,4.272,4.272,0,0,0-.412-1.781,4.376,4.376,0,0,0-.511-.814l-.634-.774-5.563-6.808c-.665-.816-1.322-1.619-1.946-2.383l.042.019-13.891.2-4.12.048-1.111.008h-.289Z" fill="#263238"/>
              </g>
            </g>
          </g>
          <g id="Group_119" data-name="Group 119">
            <g id="Group_118" data-name="Group 118">
              <g id="Group_117" data-name="Group 117">
                <path id="Path_140" data-name="Path 140" d="M89.349,62.752c0-.006.059-.006.167-.025a1.142,1.142,0,0,0,.439-.176,1.128,1.128,0,0,0,.448-.582,1.249,1.249,0,0,0,.056-.46,1.153,1.153,0,0,0-.13-.5,1.1,1.1,0,0,0-.965-.586l-1.41,0-3.233,0a1.1,1.1,0,0,0-1.086.971,1.214,1.214,0,0,0,.134.739,1.112,1.112,0,0,0,.536.475,1.7,1.7,0,0,0,.7.086l.684,0,1.23.006,1.781.017.483.01a.885.885,0,0,1,.167.013.823.823,0,0,1-.169.01l-.483.01-1.781.017-1.23.006L85,62.8c-.119,0-.234,0-.362,0a1.162,1.162,0,0,1-.372-.086,1.214,1.214,0,0,1-.588-.517,1.323,1.323,0,0,1-.149-.8,1.2,1.2,0,0,1,1.193-1.069l3.233,0,1.412.006a1.181,1.181,0,0,1,1.159,1.174,1.284,1.284,0,0,1-.069.481,1.159,1.159,0,0,1-.481.6,1.109,1.109,0,0,1-.46.161A.727.727,0,0,1,89.349,62.752Z" fill="#263238"/>
              </g>
            </g>
          </g>
          <g id="Group_122" data-name="Group 122">
            <g id="Group_121" data-name="Group 121">
              <g id="Group_120" data-name="Group 120">
                <path id="Path_141" data-name="Path 141" d="M120.3,62.752c0-.006.059-.006.167-.025a1.142,1.142,0,0,0,.439-.176,1.128,1.128,0,0,0,.448-.582,1.207,1.207,0,0,0,.056-.46,1.153,1.153,0,0,0-.13-.5,1.1,1.1,0,0,0-.965-.586l-1.41,0-3.233,0a1.1,1.1,0,0,0-1.086.971,1.214,1.214,0,0,0,.134.739,1.112,1.112,0,0,0,.536.475,1.7,1.7,0,0,0,.7.086l.684,0,1.23.006,1.781.017.483.01a.885.885,0,0,1,.167.013.823.823,0,0,1-.169.01l-.483.01-1.781.017-1.23.006-.684,0c-.119,0-.234,0-.362,0a1.162,1.162,0,0,1-.372-.086,1.214,1.214,0,0,1-.588-.517,1.324,1.324,0,0,1-.149-.8,1.2,1.2,0,0,1,1.193-1.069l3.233,0,1.412.006a1.181,1.181,0,0,1,1.159,1.174,1.284,1.284,0,0,1-.069.481,1.159,1.159,0,0,1-.481.6,1.109,1.109,0,0,1-.46.161A.727.727,0,0,1,120.3,62.752Z" fill="#263238"/>
              </g>
            </g>
          </g>
          <g id="Group_124" data-name="Group 124">
            <g id="Group_123" data-name="Group 123">
              <path id="Path_142" data-name="Path 142" d="M147.441,57.7h-6.193a2.286,2.286,0,0,0-2.023,1.222h0a2.288,2.288,0,0,0-.069,1.986l2.429,5.517,6.2-.061S149.106,59.368,147.441,57.7Z" fill="#fafafa"/>
            </g>
          </g>
          <g id="Group_126" data-name="Group 126">
            <g id="Group_125" data-name="Group 125">
              <path id="Path_143" data-name="Path 143" d="M61.429,56.92l31.955-.588,20.8-.381,6.858-3.959a1.067,1.067,0,0,0,.316-1.567l-4.268-5.609a2.375,2.375,0,0,0-1.87-.937l-23.262-.188s-8.76-.508-15.661,3.356A147.115,147.115,0,0,0,61.429,56.92Z" fill="#263238"/>
            </g>
          </g>
          <g id="Group_128" data-name="Group 128">
            <g id="Group_127" data-name="Group 127">
              <path id="Path_144" data-name="Path 144" d="M76.073,44.268s1.6.73.559,1.408S59.4,56.561,59.4,56.561l-3.722-1.684C62.272,51.2,68.93,47.635,76.073,44.268Z" fill="#455a64"/>
            </g>
          </g>
          <g id="Group_131" data-name="Group 131">
            <g id="Group_130" data-name="Group 130">
              <g id="Group_129" data-name="Group 129">
                <path id="Path_145" data-name="Path 145" d="M59.925,56.814s-.033.01-.1.025l-.3.065-1.136.234c-.988.2-2.419.473-4.193.776-3.549.611-8.478,1.322-13.953,1.8-1.368.119-2.707.218-4,.3s-2.54.163-3.724.272a32.267,32.267,0,0,0-6.216,1.065,17.562,17.562,0,0,0-3.919,1.634c-.446.234-.762.464-.988.6-.109.069-.192.123-.255.161l-.088.052s.027-.023.082-.061l.249-.172c.222-.144.536-.381.979-.621a17.1,17.1,0,0,1,3.919-1.672,31.645,31.645,0,0,1,6.229-1.09c1.186-.111,2.433-.192,3.726-.278s2.63-.184,4-.3c5.473-.473,10.4-1.172,13.951-1.764,1.776-.3,3.207-.559,4.2-.743l1.14-.216c.128-.023.226-.04.3-.054Z" fill="#263238"/>
              </g>
            </g>
          </g>
          <g id="Group_134" data-name="Group 134">
            <g id="Group_133" data-name="Group 133">
              <g id="Group_132" data-name="Group 132">
                <path id="Path_146" data-name="Path 146" d="M149.916,71.123c0,.029-2.13.054-4.756.054s-4.758-.025-4.758-.054,2.13-.054,4.758-.054S149.916,71.093,149.916,71.123Z" fill="#263238"/>
              </g>
            </g>
          </g>
          <g id="Group_137" data-name="Group 137">
            <g id="Group_136" data-name="Group 136">
              <g id="Group_135" data-name="Group 135">
                <path id="Path_147" data-name="Path 147" d="M110.951,76.558c0,.029-12.022.054-26.85.054s-26.852-.025-26.852-.054S69.269,76.5,84.1,76.5,110.951,76.529,110.951,76.558Z" fill="#263238"/>
              </g>
            </g>
          </g>
          <g id="Group_140" data-name="Group 140">
            <g id="Group_139" data-name="Group 139">
              <g id="Group_138" data-name="Group 138">
                <path id="Path_148" data-name="Path 148" d="M26.771,71.3c0,.029-1.7.054-3.8.054s-3.8-.025-3.8-.054,1.7-.054,3.8-.054S26.771,71.273,26.771,71.3Z" fill="#263238"/>
              </g>
            </g>
          </g>
          <g id="Group_142" data-name="Group 142">
            <g id="Group_141" data-name="Group 141">
              <path id="Path_149" data-name="Path 149" d="M137.31,47.957s-1.427,1.6-.866,2.77S142.8,56,142.8,56l4.208.789Z" fill="#455a64"/>
            </g>
          </g>
          <g id="Group_144" data-name="Group 144">
            <g id="Group_143" data-name="Group 143">
              <path id="Path_150" data-name="Path 150" d="M97.305,45.1,96.36,55.316l16.931-.483,6.823-3.967L115.7,45.1Z" fill="#455a64"/>
            </g>
          </g>
          <g id="Group_146" data-name="Group 146">
            <g id="Group_145" data-name="Group 145">
              <path id="Path_151" data-name="Path 151" d="M65.438,55.839S75.653,48.461,79.682,47a25.719,25.719,0,0,1,9.57-1.873c3.492-.1,5.62,0,5.62,0l-2.7,10.388Z" fill="#455a64"/>
            </g>
          </g>
          <g id="Group_152" data-name="Group 152">
            <g id="Group_148" data-name="Group 148">
              <g id="Group_147" data-name="Group 147">
                <path id="Path_152" data-name="Path 152" d="M63.944,55.872h0a1.794,1.794,0,0,1,.912-1.561L67.2,52.993a4.464,4.464,0,0,1,2.191-.573h0a4.465,4.465,0,0,1,1.393.222A2.546,2.546,0,0,1,72.5,54.977h0a2.586,2.586,0,0,1-2.584,2.684h-4.18A1.789,1.789,0,0,1,63.944,55.872Z" fill="#e8505b"/>
              </g>
            </g>
            <g id="Group_151" data-name="Group 151">
              <g id="Group_150" data-name="Group 150">
                <g id="Group_149" data-name="Group 149">
                  <path id="Path_153" data-name="Path 153" d="M63.944,55.872c.006,0,.006.08.027.226a1.775,1.775,0,0,0,.925,1.32,1.818,1.818,0,0,0,.6.19,6.761,6.761,0,0,0,.722.013c1.021,0,2.235-.006,3.58-.013a2.727,2.727,0,0,0,1-.163,2.549,2.549,0,0,0,.885-.563,2.515,2.515,0,0,0,.6-.906,2.6,2.6,0,0,0,.157-1.107A2.533,2.533,0,0,0,71.378,53a2.7,2.7,0,0,0-.971-.408,4.33,4.33,0,0,0-1.013-.119,4.467,4.467,0,0,0-1.837.393c-.27.121-.517.274-.762.406l-.7.389q-.668.37-1.2.667a1.8,1.8,0,0,0-.925,1.322c-.021.144-.019.224-.025.224a1.129,1.129,0,0,1,0-.23,1.73,1.73,0,0,1,.192-.63,1.825,1.825,0,0,1,.726-.743l1.195-.68c.222-.126.454-.257.695-.4s.49-.289.766-.414a4.506,4.506,0,0,1,2.912-.293,2.773,2.773,0,0,1,1.006.423,2.635,2.635,0,0,1,1.1,1.952,2.693,2.693,0,0,1-.163,1.155,2.648,2.648,0,0,1-1.546,1.527,2.823,2.823,0,0,1-1.034.165l-3.58-.013a6.922,6.922,0,0,1-.73-.021,1.809,1.809,0,0,1-.624-.205,1.867,1.867,0,0,1-.728-.741,1.76,1.76,0,0,1-.19-.63A1.346,1.346,0,0,1,63.944,55.872Z" fill="#263238"/>
                </g>
              </g>
            </g>
          </g>
          <g id="Group_155" data-name="Group 155">
            <g id="Group_154" data-name="Group 154">
              <g id="Group_153" data-name="Group 153">
                <path id="Path_154" data-name="Path 154" d="M142.639,83.13s0-.05.006-.144.017-.241.029-.425.033-.416.046-.69.021-.59.031-.944,0-.751-.006-1.182c-.027-.431-.029-.9-.088-1.4a18.134,18.134,0,0,0-.6-3.366,14.955,14.955,0,0,0-.667-1.873,12.573,12.573,0,0,0-1.011-1.9,12.983,12.983,0,0,0-3.27-3.415,15.409,15.409,0,0,0-4.693-2.312,19.523,19.523,0,0,0-5.578-.743,18.312,18.312,0,0,0-5.565.81,15.552,15.552,0,0,0-2.477,1.023,14.317,14.317,0,0,0-2.151,1.406,18.026,18.026,0,0,0-3.314,3.4,13.075,13.075,0,0,0-1.1,1.85,17.971,17.971,0,0,0-.762,1.839,21.877,21.877,0,0,0-1.207,5.871c-.033.709-.029,1.262-.013,1.634.01.184.019.326.025.425s0,.144,0,.144-.006-.048-.017-.144-.021-.241-.036-.425a16.179,16.179,0,0,1-.008-1.638,21.557,21.557,0,0,1,1.178-5.894,18.281,18.281,0,0,1,.759-1.85,13.3,13.3,0,0,1,1.1-1.866,17.95,17.95,0,0,1,3.325-3.423,14.4,14.4,0,0,1,2.163-1.419,15.768,15.768,0,0,1,2.494-1.031,18.347,18.347,0,0,1,5.6-.816,19.6,19.6,0,0,1,5.607.749,15.486,15.486,0,0,1,4.72,2.335,14.206,14.206,0,0,1,1.85,1.624,11.311,11.311,0,0,1,1.437,1.822,12.337,12.337,0,0,1,1.011,1.917,15.072,15.072,0,0,1,.663,1.885,18.057,18.057,0,0,1,.592,3.381c.056.5.054.975.079,1.406,0,.433,0,.829,0,1.184s-.029.67-.042.946-.042.5-.056.69-.029.324-.04.425S142.639,83.13,142.639,83.13Z" fill="#fff"/>
              </g>
            </g>
          </g>
          <g id="Group_158" data-name="Group 158">
            <g id="Group_157" data-name="Group 157">
              <g id="Group_156" data-name="Group 156">
                <path id="Path_155" data-name="Path 155" d="M46.526,64.578" fill="none" stroke="#4e585d" stroke-width="0.01"/>
              </g>
            </g>
          </g>
          <g id="Group_161" data-name="Group 161">
            <g id="Group_160" data-name="Group 160">
              <g id="Group_159" data-name="Group 159">
                <path id="Path_156" data-name="Path 156" d="M91.725,56.92a.15.15,0,0,1-.048.006l-.142.006-.546.013-2.006.036c-1.695.031-4.034.094-6.62.165s-4.927.121-6.622.132c-.847.006-1.534.006-2.009,0l-.546-.008c-.056,0-.1,0-.142,0a.024.024,0,1,1,0-.013l.142-.006.546-.013,2.006-.036c1.695-.031,4.036-.094,6.622-.165s4.927-.121,6.622-.132c.847-.006,1.534-.006,2.009,0l.546.008c.056,0,.1,0,.142,0A.143.143,0,0,1,91.725,56.92Z" fill="#fff"/>
              </g>
            </g>
          </g>
          <g id="Group_164" data-name="Group 164">
            <g id="Group_163" data-name="Group 163">
              <g id="Group_162" data-name="Group 162">
                <path id="Path_157" data-name="Path 157" d="M88.951,60.065a15.675,15.675,0,0,1-1.833.054,15.675,15.675,0,0,1-1.833-.054,15.674,15.674,0,0,1,1.833-.054A15.678,15.678,0,0,1,88.951,60.065Z" fill="#fff"/>
              </g>
            </g>
          </g>
          <g id="Group_167" data-name="Group 167">
            <g id="Group_166" data-name="Group 166">
              <g id="Group_165" data-name="Group 165">
                <path id="Path_158" data-name="Path 158" d="M89.625,48.869c.01.027-2.264.975-5.082,2.115S79.431,53.027,79.419,53s2.264-.975,5.082-2.115S89.612,48.842,89.625,48.869Z" fill="#fff"/>
              </g>
            </g>
          </g>
          <g id="Group_170" data-name="Group 170">
            <g id="Group_169" data-name="Group 169">
              <g id="Group_168" data-name="Group 168">
                <path id="Path_159" data-name="Path 159" d="M85.013,49.583c.013.027-2.155.981-4.839,2.132s-4.871,2.059-4.881,2.032,2.155-.981,4.839-2.132S85,49.556,85.013,49.583Z" fill="#fff"/>
              </g>
            </g>
          </g>
          <g id="Group_173" data-name="Group 173">
            <g id="Group_172" data-name="Group 172">
              <g id="Group_171" data-name="Group 171">
                <path id="Path_160" data-name="Path 160" d="M114.255,48.474c.01.027-2.264.975-5.082,2.115s-5.111,2.042-5.124,2.015,2.264-.975,5.082-2.115S114.245,48.445,114.255,48.474Z" fill="#fff"/>
              </g>
            </g>
          </g>
          <g id="Group_176" data-name="Group 176">
            <g id="Group_175" data-name="Group 175">
              <g id="Group_174" data-name="Group 174">
                <path id="Path_161" data-name="Path 161" d="M109.644,49.187c.013.027-2.155.981-4.839,2.132s-4.871,2.059-4.881,2.032,2.155-.981,4.839-2.132S109.633,49.16,109.644,49.187Z" fill="#fff"/>
              </g>
            </g>
          </g>
          <g id="Group_179" data-name="Group 179">
            <g id="Group_178" data-name="Group 178">
              <g id="Group_177" data-name="Group 177">
                <path id="Path_162" data-name="Path 162" d="M114.7,56.918c0,.029-4.526.082-10.108.115s-10.108.036-10.108.006,4.523-.082,10.108-.115S114.7,56.887,114.7,56.918Z" fill="#fff"/>
              </g>
            </g>
          </g>
          <g id="Group_182" data-name="Group 182">
            <g id="Group_181" data-name="Group 181">
              <g id="Group_180" data-name="Group 180">
                <path id="Path_163" data-name="Path 163" d="M119.712,59.891c0,.029-1.268.067-2.835.082s-2.835,0-2.835-.027,1.268-.067,2.835-.082S119.712,59.86,119.712,59.891Z" fill="#fff"/>
              </g>
            </g>
          </g>
          <g id="Group_185" data-name="Group 185">
            <g id="Group_184" data-name="Group 184">
              <g id="Group_183" data-name="Group 183">
                <path id="Path_164" data-name="Path 164" d="M33.06,58.343a.46.46,0,0,1-.123.023l-.356.046c-.155.017-.343.042-.561.077s-.467.067-.739.121c-.546.094-1.191.239-1.9.427s-1.475.441-2.262.747-1.517.653-2.168.99-1.218.676-1.684.979c-.236.144-.441.291-.623.414s-.339.232-.462.324-.216.153-.291.207a.65.65,0,0,1-.107.067.605.605,0,0,1,.092-.084l.28-.224c.121-.1.272-.213.454-.341s.383-.278.617-.429c.462-.312,1.031-.653,1.678-1a21.94,21.94,0,0,1,2.176-1,22.189,22.189,0,0,1,2.276-.743c.713-.184,1.362-.32,1.912-.406.274-.05.525-.077.743-.1s.408-.048.563-.059.264-.019.358-.027A.815.815,0,0,1,33.06,58.343Z" fill="#fff"/>
              </g>
            </g>
          </g>
          <g id="Group_188" data-name="Group 188">
            <g id="Group_187" data-name="Group 187">
              <g id="Group_186" data-name="Group 186">
                <path id="Path_165" data-name="Path 165" d="M70.422,53.407c-.008.006-.063-.082-.2-.195a1.393,1.393,0,0,0-.69-.278,3.02,3.02,0,0,0-1.115.121,8.571,8.571,0,0,0-3.461,1.781c-.5.418-.759.726-.776.711a1.346,1.346,0,0,1,.176-.222,6.68,6.68,0,0,1,.548-.546,7.957,7.957,0,0,1,2.151-1.375,8.14,8.14,0,0,1,1.337-.446,3,3,0,0,1,1.151-.1,1.351,1.351,0,0,1,.709.324.9.9,0,0,1,.14.161C70.413,53.382,70.426,53.405,70.422,53.407Z" fill="#fff"/>
              </g>
            </g>
          </g>
        </g>
        <g id="Group_192" data-name="Group 192">
          <g id="Group_191" data-name="Group 191">
            <g id="Group_190" data-name="Group 190">
              <path id="Path_166" data-name="Path 166" d="M137.785,47.882a3.292,3.292,0,0,1-.891.09,5.474,5.474,0,0,1-1.044-.13,9.41,9.41,0,0,1-1.331-.41c-.483-.182-1-.414-1.555-.651l-.868-.352c-.3-.119-.615-.222-.933-.339A36.354,36.354,0,0,0,126.9,44.93a49.029,49.029,0,0,0-7.969-.992c-.515-.027-.979-.027-1.387-.04h-1.048l-.663.015c-.071,0-.128,0-.172,0a.176.176,0,0,1-.059,0,.247.247,0,0,1,.059-.008c.044,0,.1-.006.172-.013l.663-.036c.291,0,.642-.01,1.05-.019s.877,0,1.391.023a46.6,46.6,0,0,1,7.988.962,35.189,35.189,0,0,1,4.275,1.174c.32.117.636.222.935.343l.87.358c.557.243,1.067.477,1.546.661a9.532,9.532,0,0,0,1.316.423,5.725,5.725,0,0,0,1.031.146,4.369,4.369,0,0,0,.659-.025l.172-.021C137.764,47.882,137.785,47.88,137.785,47.882Z" fill="#263238"/>
            </g>
          </g>
        </g>
      </g>
    </g>
  </g>
</svg>
