<svg xmlns="http://www.w3.org/2000/svg" xmlns:xlink="http://www.w3.org/1999/xlink" width="132" height="132" viewBox="0 0 132 132">
  <defs>
    <clipPath id="clip-path">
      <rect id="Rectangle_12" data-name="Rectangle 12" width="132" height="132" rx="20" transform="translate(325 653)" fill="#f6f6f6"/>
    </clipPath>
    <clipPath id="clip-path-2">
      <path id="Path_32" data-name="Path 32" d="M90.269,115.981l10.334,4.51s4.259-4.452,3.359-9.3c-1.836-9.888,6.952-10.806,10.575-11.741,5.464-1.41,9.664-5.037,4.547-9.646s4.951-11.265,14.1-12.271c8.957-.984,12.375-17.474-7.206-17.124-11.694.209-14.677,11.209-17.5,16.406s-11.056,2.138-11.186,9.937c-.111,6.662,2.558,12.719-2.539,15.108S87.408,108.442,90.269,115.981Z"/>
    </clipPath>
    <clipPath id="clip-path-4">
      <path id="Path_50" data-name="Path 50" d="M79.766,110.486l-9.513,4.755s-6.782-3.664-5.136-7.534-4.033-8.087-6.766-10.692c-7.415-7.068,2.262-13.967-6.46-23.833-2.32-2.624-7.71-6.821-7.127-10.947.663-4.7,4.754-4.061,4.773-7.542.03-5.442,3.56-10.342,9.089-9.4,5.456.932,7.8,9.924,4.242,21.7-1.572,8.665-.536,10,2.606,12.723,2.2,1.909,9.433,5.627,8.2,10.562s-1.546,9.416,1.849,10.811C80.688,103.216,79.766,110.486,79.766,110.486Z"/>
    </clipPath>
    <linearGradient id="linear-gradient" x1="-1.462" y1="0.576" x2="-0.347" y2="1.871" gradientUnits="objectBoundingBox">
      <stop offset="0.004" stop-color="#e38ddd"/>
      <stop offset="1" stop-color="#9571f6"/>
    </linearGradient>
    <clipPath id="clip-path-5">
      <path id="Path_57" data-name="Path 57" d="M112.476,103.475,98.213,110.8c-1.836-1.469-4.751-4.42-2.224-6.813,3.513-3.328-.085-10.215-2.528-12.039-3.025-2.258-9.95-7.658-4.6-12.881,4.454-4.349,8.222-6.317,5.126-12.92s-1.531-12.551,4.871-15.409c6.737-3.007,7.678-13.944,14.494-14.013,11.876-.12,11.086,18.411,1.98,28.42s-.542,10.441,2.6,15.526c4.292,6.943-6.855,10.807-8.059,15.044C108.93,99.035,110.973,101.87,112.476,103.475Z"/>
    </clipPath>
    <linearGradient id="linear-gradient-2" x1="-1.303" y1="-0.338" x2="-0.738" y2="1.469" xlink:href="#linear-gradient"/>
    <clipPath id="clip-path-6">
      <path id="Path_64" data-name="Path 64" d="M90.925,111.287l-1.757,15.937c-2.237.722-6.307,1.527-6.91-1.9-.839-4.766-8.568-5.562-11.438-4.529-3.551,1.278-11.875,4.077-13.282-3.266-1.172-6.114-.736-10.342-7.952-11.4s-11.315-5.644-10.168-12.56c1.206-7.278-7.4-14.094-3.7-19.818,6.448-9.973,21.472.9,24.8,14.019s8.412,6.209,14.387,6.391c8.158.248,5.235,11.678,8.107,15.019C85.267,111.8,88.759,111.656,90.925,111.287Z"/>
    </clipPath>
    <linearGradient id="linear-gradient-3" y1="0.5" x2="1" y2="0.5" gradientUnits="objectBoundingBox">
      <stop offset="0.004" stop-color="#6165d7"/>
      <stop offset="1" stop-color="#aa80f9"/>
    </linearGradient>
    <linearGradient id="linear-gradient-5" x1="0.51" y1="0.215" x2="0.227" y2="1.882" xlink:href="#linear-gradient-3"/>
    <linearGradient id="linear-gradient-8" y1="0.5" x2="1" y2="0.5" gradientUnits="objectBoundingBox">
      <stop offset="0" stop-color="#444b8c"/>
      <stop offset="0.996" stop-color="#26264f"/>
    </linearGradient>
    <linearGradient id="linear-gradient-10" x1="0.273" y1="0.017" x2="0.677" y2="1.045" gradientUnits="objectBoundingBox">
      <stop offset="0.004" stop-color="#ebeff2"/>
      <stop offset="1" stop-color="#fff"/>
    </linearGradient>
  </defs>
  <g id="Mask_Group_2" data-name="Mask Group 2" transform="translate(-325 -653)" clip-path="url(#clip-path)">
    <g id="Illustration" transform="translate(306.67 635.156)">
      <g id="Group_25" data-name="Group 25">
        <path id="Path_30" data-name="Path 30" d="M86.384,20.594C52.592,19.61,23.322,43.791,18.9,75.518c-4.835,34.689,21.777,65.9,54.522,70.9,40.729,6.218,80.234-29.754,76.686-68.779C147.436,48.239,120.733,21.595,86.384,20.594Z" fill="#f4f7fa"/>
        <g id="Group_22" data-name="Group 22">
          <g id="Group_12" data-name="Group 12">
            <g id="Group_10" data-name="Group 10" clip-path="url(#clip-path-2)">
              <path id="Path_31" data-name="Path 31" d="M90.269,115.981l10.334,4.51s4.259-4.452,3.359-9.3c-1.836-9.888,6.952-10.806,10.575-11.741,5.464-1.41,9.057-4.746,5.324-9.555-4.223-5.442,4.173-11.356,13.326-12.362,8.957-.984,12.375-17.474-7.206-17.124-11.694.209-14.677,11.209-17.5,16.406s-11.056,2.138-11.186,9.937c-.111,6.662,2.558,12.719-2.539,15.108S87.408,108.442,90.269,115.981Z" fill="#d8dee8"/>
            </g>
            <g id="Group_11" data-name="Group 11" opacity="0.5" clip-path="url(#clip-path-2)">
              <path id="Path_33" data-name="Path 33" d="M94.323,118.892l.232.054A115.288,115.288,0,0,1,105.69,91.231c7.077-12.173,19.325-25.834,37.486-21.793l.052-.232a27.826,27.826,0,0,0-22.6,4.455c-5.523,3.8-10.618,9.671-15.143,17.455A115.56,115.56,0,0,0,94.323,118.892Z" fill="#beb8f2"/>
              <path id="Path_34" data-name="Path 34" d="M117.821,75.772l.228.067c2.247-7.6,9.459-16.635,9.531-16.725l-.186-.149C127.322,59.057,120.082,68.131,117.821,75.772Z" fill="#beb8f2"/>
              <path id="Path_35" data-name="Path 35" d="M122.515,72.73a19.83,19.83,0,0,1,15.3,3.871l.159-.177a20.073,20.073,0,0,0-15.5-3.93Z" fill="#beb8f2"/>
              <path id="Path_36" data-name="Path 36" d="M101.138,100.143c6.928-9.221,22.018-5.639,22.162-5.592l.089-.221c-.137-.06-15.452-3.633-22.441,5.67Z" fill="#beb8f2"/>
              <path id="Path_37" data-name="Path 37" d="M102.972,95.755l.233.049c1.508-7.2-3.672-14.874-3.725-14.95l-.2.135C99.336,81.064,104.46,88.652,102.972,95.755Z" fill="#beb8f2"/>
              <path id="Path_38" data-name="Path 38" d="M95.143,116.7c2.062-3.866,9.16-4.542,9.232-4.548l-.021-.237c-.3.026-7.3.693-9.421,4.674Z" fill="#beb8f2"/>
              <path id="Path_39" data-name="Path 39" d="M95.906,113.288l.231.057c.831-3.363-2.378-8.914-3.433-10.738-.149-.258-.278-.48-.293-.524l-.226.074a5.473,5.473,0,0,0,.313.57C93.542,104.529,96.715,110.018,95.906,113.288Z" fill="#beb8f2"/>
            </g>
          </g>
          <g id="Group_15" data-name="Group 15">
            <path id="Path_41" data-name="Path 41" d="M75.523,101.094c2.969,1.22,3.822,4.214,4.1,6.477a3.255,3.255,0,0,0-.512.627c-1.734,2.283-2.961,2.888-5.025,4.868a14.983,14.983,0,0,1-2.84,1.586l-1.334.547s-6.439-3.624-4.793-7.493-4.033-8.087-6.766-10.692A13.615,13.615,0,0,1,55.9,93.459c-5.529-7.27-9.374-7.53-9.72-11-.381-3.829,4.194-4.608,4-8.8-.221-4.728-6.2-6.91-5.412-11.431a6.006,6.006,0,0,1,.869-2.448c1.413-2.172,3.889-2.387,3.9-5.095.03-5.442,3.56-10.342,9.089-9.4,5.456.932,7.8,9.924,4.242,21.7-1.572,8.665-.536,10,2.606,12.723,2.2,1.909,9.433,5.626,8.2,10.562S72.129,99.7,75.523,101.094Z" fill="#d8dee8"/>
            <g id="Group_14" data-name="Group 14">
              <g id="Group_13" data-name="Group 13" opacity="0.5" clip-path="url(#clip-path-4)">
                <path id="Path_42" data-name="Path 42" d="M75.3,112.191l-.176.116c-.649-.966-1.29-1.949-1.907-2.922A113.414,113.414,0,0,1,62.31,87.4,92.646,92.646,0,0,1,57.6,68.559a79.741,79.741,0,0,1-.677-14.821,66.022,66.022,0,0,1,1.185-9.7c.107-.532.248-1.073.383-1.6.181-.7.368-1.417.478-2.123l.2.017c-.112.716-.3,1.441-.482,2.142-.135.52-.275,1.058-.381,1.585a65.8,65.8,0,0,0-1.181,9.673,79.518,79.518,0,0,0,.675,14.786,92.477,92.477,0,0,0,4.7,18.8,113.2,113.2,0,0,0,10.888,21.949C74.009,110.244,74.65,111.226,75.3,112.191Z" fill="#fcfdfe"/>
                <path id="Path_43" data-name="Path 43" d="M59.181,76.052l-.2.06c-2.106-8.16-14.011-16.521-14.131-16.6l.128-.165C45.1,59.428,57.058,67.827,59.181,76.052Z" fill="#fcfdfe"/>
                <path id="Path_44" data-name="Path 44" d="M67.189,98.246,67,98.328c-2.118-5.34,3.5-15.539,3.559-15.642l.181.085C70.678,82.873,65.1,92.99,67.189,98.246Z" fill="#fcfdfe"/>
                <path id="Path_45" data-name="Path 45" d="M68.67,101.159l-.179.113c-2.019-3.154-6.6-6.3-12.895-8.864-.317-.129-.317-.129-.337-.16l.177-.115-.089.057.061-.083c.02.011.139.06.278.116C62.021,94.8,66.631,97.973,68.67,101.159Z" fill="#fcfdfe"/>
                <path id="Path_46" data-name="Path 46" d="M74.141,110.409l-.2.061c-1.053-4.009,2.868-9.224,2.907-9.276l.164.111C76.972,101.356,73.112,106.492,74.141,110.409Z" fill="#fcfdfe"/>
                <path id="Path_47" data-name="Path 47" d="M75.064,112.407a22.858,22.858,0,0,0-10.648-3.624l.038-.2a23.047,23.047,0,0,1,10.739,3.658Z" fill="#fcfdfe"/>
                <path id="Path_48" data-name="Path 48" d="M57.037,56.568l-.2.049a51.316,51.316,0,0,0-3.662-10.7c-.165-.364-.223-.492-.235-.541l.2-.057c.009.037.1.245.224.508A51.576,51.576,0,0,1,57.037,56.568Z" fill="#fcfdfe"/>
                <path id="Path_49" data-name="Path 49" d="M57.335,64.358l-.206-.01c.535-4.463,7.829-10.445,8.14-10.7l.127.149C65.321,53.86,57.86,59.979,57.335,64.358Z" fill="#fcfdfe"/>
              </g>
            </g>
          </g>
          <g id="Group_18" data-name="Group 18">
            <path id="Path_51" data-name="Path 51" d="M115.57,117.76c-.649.241-1.575-3.276-5.45-6.371-.968-.773-5.955-5.357-10.549-3.158l-2.675,1.28c-1.782-1.572-3.17-3.385-.908-5.528,3.513-3.328-.085-10.215-2.528-12.039-3.025-2.258-9.95-7.658-4.6-12.881,4.454-4.349,8.222-6.317,5.126-12.92s-1.531-12.551,4.871-15.409c6.737-3.008,7.678-13.944,14.494-14.014,11.875-.12,11.086,18.411,1.98,28.421s-.541,10.441,2.6,15.526a10.335,10.335,0,0,1,.9,2.269c1.639,6.168-3.622,10.13-5.378,16.8C111.065,108.834,116.664,117.353,115.57,117.76Z" fill="url(#linear-gradient)"/>
            <g id="Group_17" data-name="Group 17">
              <g id="Group_16" data-name="Group 16" opacity="0.5" clip-path="url(#clip-path-5)">
                <path id="Path_52" data-name="Path 52" d="M104.643,104.816l-.333.1c-6.672-23.047-1.5-49.518,13.507-69.081l.275.189C103.153,55.5,98,81.864,104.643,104.816Z" fill="#fcfdfe"/>
                <path id="Path_53" data-name="Path 53" d="M102.143,91.91l-.308.16C97.375,83.756,86.313,81.21,86.2,81.185l.09-.322C86.4,80.888,97.613,83.465,102.143,91.91Z" fill="#fcfdfe"/>
                <path id="Path_54" data-name="Path 54" d="M103.538,100.54l-.345,0c.287-9.63,16.046-19.145,16.205-19.24l.174.279C119.415,81.676,103.819,91.093,103.538,100.54Z" fill="#fcfdfe"/>
                <path id="Path_55" data-name="Path 55" d="M103.436,68.221l-.345.032c-.454-7.605-9.785-14.831-9.879-14.9l.221-.261C93.529,53.161,102.973,60.475,103.436,68.221Z" fill="#fcfdfe"/>
                <path id="Path_56" data-name="Path 56" d="M108.036,53.356l-.294-.163c4.778-7.577,16.675-10.93,16.8-10.963l.084.317C124.5,42.58,112.74,45.9,108.036,53.356Z" fill="#fcfdfe"/>
              </g>
            </g>
          </g>
          <g id="Group_21" data-name="Group 21">
            <path id="Path_58" data-name="Path 58" d="M104.549,116.583c-.157.674-3.6-.492-8.32,1.033-1.179.381-7.753,2.014-8.451,7.059l-.407,2.938c-2.295.62-4.572.778-5.112-2.291-.839-4.766-8.568-5.562-11.438-4.529-3.551,1.278-11.875,4.077-13.282-3.266-1.172-6.114-.736-10.342-7.952-11.4s-11.315-5.644-10.169-12.56c1.206-7.279-7.4-14.094-3.7-19.818,6.448-9.973,21.472.9,24.8,14.02s8.412,6.209,14.387,6.391a10.33,10.33,0,0,1,2.391.5c6.049,2.034,6.454,8.607,11.05,13.75C94.619,115.42,104.813,115.446,104.549,116.583Z" fill="url(#linear-gradient-2)"/>
            <g id="Group_20" data-name="Group 20">
              <g id="Group_19" data-name="Group 19" opacity="0.5" clip-path="url(#clip-path-6)">
                <path id="Path_59" data-name="Path 59" d="M87.726,118.562l-.1.333c-22.906-7.143-42.135-26.057-50.182-49.36l.31-.126C45.767,92.614,64.915,111.448,87.726,118.562Z" fill="#fcfdfe"/>
                <path id="Path_60" data-name="Path 60" d="M75.58,113.531l-.037.345c-9.395-.864-17.619,6.96-17.7,7.039l-.219-.253C57.707,120.582,66.038,112.654,75.58,113.531Z" fill="#fcfdfe"/>
                <path id="Path_61" data-name="Path 61" d="M83.549,117.126l-.188.29c-7.876-5.549-7.124-23.943-7.115-24.128l.329.008C76.567,93.479,75.823,111.682,83.549,117.126Z" fill="#fcfdfe"/>
                <path id="Path_62" data-name="Path 62" d="M56.531,99.389l-.164.305c-6.595-3.814-17.768-.015-17.88.024l-.1-.329C38.5,99.35,49.814,95.5,56.531,99.389Z" fill="#fcfdfe"/>
                <path id="Path_63" data-name="Path 63" d="M46.667,87.355l-.3.155c-3.686-8.164.077-19.938.115-20.056l.311.105C46.757,67.676,43.038,79.318,46.667,87.355Z" fill="#fcfdfe"/>
              </g>
            </g>
          </g>
        </g>
        <g id="Group_24" data-name="Group 24">
          <path id="Path_65" data-name="Path 65" d="M89.826,137.453q-.456.02-.874.019c-11.027,0-38.837,2.131-47.051-21.746C34.354,93.8,62.5,60.173,67.133,54.838c.412-.475.639-.725.639-.725s-1.225-.9,23.579-1.857C119.838,74.1,124.34,91.4,124.34,91.4,133.4,126.836,101.643,136.968,89.826,137.453Z" fill="url(#linear-gradient-3)"/>
          <path id="Path_66" data-name="Path 66" d="M89.826,137.453q-.456.02-.874.019c-11.027,0-38.837,2.131-47.051-21.746C34.354,93.8,62.5,60.173,67.133,54.838a7.483,7.483,0,0,1,3.4.209C70.951,55.177,12.789,129.6,89.826,137.453Z" opacity="0.3" fill="url(#linear-gradient-3)"/>
          <path id="Path_67" data-name="Path 67" d="M63.055,35.377s4.626-7.867,11.157-4.969,11.792,5.072,15.239,3,5.25-3.711,6.208.836-12.1,15.727-12.1,15.727S63.6,49.973,63.055,35.377Z" fill="url(#linear-gradient-5)"/>
          <path id="Path_68" data-name="Path 68" d="M63.055,38.829s4.626-7.867,11.157-4.969,11.792,5.072,15.239,3,5.25-3.711,6.208.836-12.1,15.727-12.1,15.727S63.6,53.424,63.055,38.829Z" opacity="0.2" fill="url(#linear-gradient-5)"/>
          <path id="Path_69" data-name="Path 69" d="M96.64,46.54c-1.851,2.75-4.01,5.108-5.911,6.079-2.384,1.217-6.629,1.954-10.857,2.263a43.885,43.885,0,0,1-10.757-.321l0,0a5.225,5.225,0,0,1-1.34-.444S60.3,42.245,60.189,36.707c-.037-1.758.671-2.878,2.593-2.778,7.983.412,8.165,4.864,13.607,3.622s9.433-9.523,13.062-4.139,7.528-2.278,10.794.207C102.353,35.221,100.01,41.531,96.64,46.54Z" fill="url(#linear-gradient-3)"/>
          <path id="Path_70" data-name="Path 70" d="M67.334,53.4s14.692,4.211,24.3-1.332A9.113,9.113,0,0,0,92.89,53.45s-7.058,6.444-26.149,1.843C66.742,55.292,67.205,53.928,67.334,53.4Z" fill="url(#linear-gradient-8)"/>
          <path id="Path_71" data-name="Path 71" d="M96.64,46.54c-1.851,2.75-4.01,5.108-5.911,6.079-2.384,1.217-6.629,1.954-10.857,2.263L69.116,54.56l0,0a5.225,5.225,0,0,1-1.34-.444S60.3,42.245,60.189,36.707c.09-.1,3.029-3.2,6.551,3.454,3.581,6.758,4.875,12.649,9.116,9.813S86.642,35.992,87.794,41.24s-3.093,10.3,0,9.463C90.206,50.051,94.852,46.449,96.64,46.54Z" opacity="0.2" fill="url(#linear-gradient-3)"/>
          <g id="Group_23" data-name="Group 23" opacity="0.9">
            <path id="Path_72" data-name="Path 72" d="M86.275,71.928h0a1.567,1.567,0,0,1,1.7,1.395l.117,2.749a50.773,50.773,0,0,1,5.456.17q2.014.171,4.006.5a1.49,1.49,0,0,1,1.323,1.5l-.2,3.51A1.6,1.6,0,0,1,96.63,83.1a23.384,23.384,0,0,0-2.713-.549,26.566,26.566,0,0,0-5.092-.206l-.466.024.341,8.028c4.817.574,8.381,1.719,10.733,3.437a8.93,8.93,0,0,1,3.756,7.092,10.548,10.548,0,0,1-3.321,8.452c-2.426,2.378-5.93,4.022-10.543,4.922l.137,3.249a1.777,1.777,0,0,1-1.634,1.751l-.03,0a1.526,1.526,0,0,1-1.771-1.394l-.126-3.212-.756.075a54.619,54.619,0,0,1-6.31.278,43.178,43.178,0,0,1-4.4-.293,1.506,1.506,0,0,1-1.424-1.563l.335-4.8a1.869,1.869,0,0,1,2.286-1.545,34.614,34.614,0,0,0,3.849.6,35.883,35.883,0,0,0,6.1.081l-.332-9.2c-4.675-.412-8.209-1.472-10.564-3.181A8.768,8.768,0,0,1,71.013,87.9a9.385,9.385,0,0,1,3.5-7.838c2.393-2,5.83-3.264,10.281-3.8l-.112-2.815A1.556,1.556,0,0,1,86.275,71.928ZM85.054,82.693a6.613,6.613,0,0,0-3.268,1.441,3.159,3.159,0,0,0-1.1,2.562,2.787,2.787,0,0,0,1.191,2.268,7.511,7.511,0,0,0,3.472,1.108Zm3.609,15.92.355,8.417a6.079,6.079,0,0,0,3.541-1.5,3.762,3.762,0,0,0,1.113-3,3.328,3.328,0,0,0-1.278-2.6A7.974,7.974,0,0,0,88.663,98.613Z" fill="url(#linear-gradient-10)"/>
          </g>
        </g>
      </g>
    </g>
  </g>
</svg>
