<svg xmlns="http://www.w3.org/2000/svg" xmlns:xlink="http://www.w3.org/1999/xlink" width="132" height="132" viewBox="0 0 132 132">
  <defs>
    <clipPath id="clip-path">
      <rect id="Rectangle_13" data-name="Rectangle 13" width="132" height="132" rx="20" transform="translate(571 653)" fill="#f6f6f6"/>
    </clipPath>
  </defs>
  <g id="Mask_Group_4" data-name="Mask Group 4" transform="translate(-571 -653)" clip-path="url(#clip-path)">
    <g id="borrow_money" transform="translate(568.548 650.548)">
      <g id="Group_33" data-name="Group 33">
        <path id="Path_78" data-name="Path 78" d="M134.452,68.452a66,66,0,1,1-66-66A66,66,0,0,1,134.452,68.452Z" fill="#56bcbf"/>
        <path id="Path_79" data-name="Path 79" d="M108.291,55.738l25.053.733A65.538,65.538,0,0,0,116.3,22.988h-8.007Z" fill="#44403e"/>
        <path id="Path_80" data-name="Path 80" d="M39.769,85.392,3.021,77.165A65.718,65.718,0,0,0,16.562,109.24l16.422,5.832Z" fill="#f47747"/>
        <path id="Path_81" data-name="Path 81" d="M66.286,53.335a2.419,2.419,0,0,0,2.4,2.388h0A2.418,2.418,0,0,0,71.5,53.849l1.85-18.677a2.418,2.418,0,0,0-2.394-2.388h0a2.412,2.412,0,0,0-2.817,1.874Z" fill="#f6b968"/>
        <path id="Path_82" data-name="Path 82" d="M66.362,53.4l-.009-19.474c.061-.63,2.315-1.375,2.887-1.71L67.485,53.7a9.953,9.953,0,0,0-.283,1.466A2.009,2.009,0,0,1,66.362,53.4Z" fill="#eeaa59"/>
        <path id="Path_83" data-name="Path 83" d="M61.354,56.277a2.42,2.42,0,0,0,2.492,2.291h0a2.419,2.419,0,0,0,2.741-1.984l1.208-19.018c.067-1.18-1.156-1.926-2.6-2.011h0a2.417,2.417,0,0,0-2.741,1.984Z" fill="#f6b968"/>
        <path id="Path_84" data-name="Path 84" d="M61.36,56.2l1.05-19.2c.061-.63,1.256-.63,1.828-.967l-2.1,21.184a2.426,2.426,0,0,0,.058.758A2.037,2.037,0,0,1,61.36,56.2Z" fill="#eeaa59"/>
        <path id="Path_85" data-name="Path 85" d="M56.082,56.712A2.415,2.415,0,0,0,58.571,59h0a2.415,2.415,0,0,0,2.741-1.987l1.1-18.735a2.409,2.409,0,0,0-2.489-2.291h0a2.419,2.419,0,0,0-2.741,1.984Z" fill="#f6b968"/>
        <path id="Path_86" data-name="Path 86" d="M118.1,51.306a1.632,1.632,0,0,1,.645-.365l.091-1.549a.577.577,0,1,1,1.153.067L119.9,51a1.608,1.608,0,0,1,.551.392,1.664,1.664,0,1,1-2.349-.091Z" fill="#33302f"/>
        <path id="Path_87" data-name="Path 87" d="M123.679,50.864l.091-1.552a.579.579,0,0,1,1.156.067l-.091,1.545a1.628,1.628,0,0,1,.551.389,1.664,1.664,0,1,1-2.355-.088A1.714,1.714,0,0,1,123.679,50.864Z" fill="#33302f"/>
        <path id="Path_88" data-name="Path 88" d="M128.678,50.77l.091-1.549a.578.578,0,0,1,1.153.07l-.091,1.542a1.7,1.7,0,0,1,.551.389,1.666,1.666,0,1,1-2.355-.088A1.638,1.638,0,0,1,128.678,50.77Z" fill="#33302f"/>
        <path id="Path_89" data-name="Path 89" d="M125.182,51.5a1.647,1.647,0,1,1-2.324-.085A1.643,1.643,0,0,1,125.182,51.5Z" fill="#22201f"/>
        <path id="Path_90" data-name="Path 90" d="M130.141,51.436a1.646,1.646,0,1,1-2.324-.088A1.648,1.648,0,0,1,130.141,51.436Z" fill="#22201f"/>
        <path id="Path_91" data-name="Path 91" d="M120.266,51.561a1.645,1.645,0,1,1-2.324-.088A1.642,1.642,0,0,1,120.266,51.561Z" fill="#22201f"/>
        <path id="Path_92" data-name="Path 92" d="M73.743,26.891c-1.46.517-18.595,9.754-19.069,12.224-.4,2.1-.253,15.145-.143,18.732,0,.113,0,.45,0,.45a2.944,2.944,0,0,0,5.841,0V43.31a2.544,2.544,0,0,1,.487-.958c.995-.855,9.328-4.761,13.322-5.029l4.971-5.537-5.23-4.935C73.846,26.867,73.779,26.879,73.743,26.891Z" fill="#ffcc90"/>
        <path id="Path_93" data-name="Path 93" d="M56.511,58.6a2.276,2.276,0,0,1-.894.2h0a0,0,0,0,0,0,0s0,0-.006,0h0a2.382,2.382,0,0,1-.91-.183,11.748,11.748,0,0,1,.164-3.739.573.573,0,0,1,.548-.4l0,0s0,0,0,0,0,0,.006,0v0a.628.628,0,0,1,.584.4A12.116,12.116,0,0,1,56.511,58.6Z" fill="#ffe0bc"/>
        <path id="Path_94" data-name="Path 94" d="M55.178,38.555a.2.2,0,0,0,.061.271l1.04.712a.187.187,0,0,0,.265-.049h0a.2.2,0,0,0-.064-.271l-1.037-.712a.184.184,0,0,0-.265.049Z" fill="#ffe0bc"/>
        <path id="Path_95" data-name="Path 95" d="M54.759,39.218a.209.209,0,0,0,.058.274l1.04.709a.186.186,0,0,0,.265-.049h0a.2.2,0,0,0-.064-.271l-1.04-.712a.182.182,0,0,0-.259.049Z" fill="#ffe0bc"/>
        <rect id="Rectangle_16" data-name="Rectangle 16" width="25.227" height="55.374" transform="translate(35.084 66.903) rotate(-79.729)" fill="#c1e4ea"/>
        <path id="Path_96" data-name="Path 96" d="M87.594,74.482,37.737,65.449l3.818-21.08L91.412,53.4ZM39.973,63.9l46.07,8.348,3.134-17.293-46.07-8.348Z" fill="#2a7b6d"/>
        <path id="Path_97" data-name="Path 97" d="M52.066,57.159a3.237,3.237,0,1,1-2.607-3.76A3.237,3.237,0,0,1,52.066,57.159Z" fill="#2a7b6d"/>
        <path id="Path_98" data-name="Path 98" d="M83.454,62.848a3.237,3.237,0,1,1-2.607-3.766A3.235,3.235,0,0,1,83.454,62.848Z" fill="#2a7b6d"/>
        <path id="Path_99" data-name="Path 99" d="M72.009,60.773A7.555,7.555,0,1,1,65.921,52,7.556,7.556,0,0,1,72.009,60.773Z" fill="#2a7b6d"/>
        <path id="Path_100" data-name="Path 100" d="M73.922,26.855l.259,10.472A2.544,2.544,0,0,1,76,37.685c2.674,2.422,2.385,4.405.459,7.5-1.123,1.807-2.647,3.593-4.469,7-4.019,7.515-1.284,7.8.116,8.692,2.519,1.6,6.717-7.737,10.195-10.307C87,47.1,93.241,42.784,93.241,42.784h15.047V26.891S76.895,26.4,73.922,26.855Z" fill="#ffcc90"/>
        <path id="Path_101" data-name="Path 101" d="M73.925,59.429a8.836,8.836,0,0,1-1.555-.952h0l-.006-.006s-.006,0-.006-.006h0a8.554,8.554,0,0,1-1.32-1.253c.739-.967,1.828-2.428,2.811-2.559A1.543,1.543,0,0,1,75,55.023h0s0,0,.006.006a.011.011,0,0,0,.009,0v0a1.523,1.523,0,0,1,.657,1.01C75.8,57.034,74.665,58.461,73.925,59.429Z" fill="#ffe0bc"/>
        <path id="Path_102" data-name="Path 102" d="M76.779,49.088c-.055.088.046.256.231.374l2.124,1.372c.183.119.38.143.435.058h0c.058-.088-.046-.256-.231-.374L77.22,49.143c-.189-.119-.383-.143-.441-.055Z" fill="#ffe0bc"/>
        <path id="Path_103" data-name="Path 103" d="M76.35,49.748c-.058.088.046.259.225.377L78.7,51.5c.186.119.38.146.438.058h0c.058-.088-.046-.259-.231-.377L76.782,49.8c-.179-.116-.377-.143-.432-.055Z" fill="#ffe0bc"/>
        <rect id="Rectangle_17" data-name="Rectangle 17" width="8.242" height="25.12" transform="translate(100.047 23.873)" fill="#f2ebec"/>
        <path id="Path_104" data-name="Path 104" d="M74.412,97.509a2.175,2.175,0,0,1-2.985.733h0a2.176,2.176,0,0,1-.73-2.988L74.981,88.2a2.176,2.176,0,0,1,2.985-.733h0a2.174,2.174,0,0,1,.73,2.985Z" fill="#f6b968"/>
        <path id="Path_105" data-name="Path 105" d="M65.513,101.829c-1.1.469-5.178,1.117-5.647.009l-.961-1.025c-.469-1.1-1.981-4.682-.995-4,5.017,3.48,13.514-2.206,13.514-2.206a2.174,2.174,0,0,1,2.848,1.156h0a2.171,2.171,0,0,1-1.156,2.848Z" fill="#f6b968"/>
        <path id="Path_106" data-name="Path 106" d="M67.941,99.9,75.1,95.946a3.874,3.874,0,0,0,1.153-1.2l2.516-6.374c.173-.359-3.553,5.8-3.553,5.8l-11.019,6.778A12.405,12.405,0,0,0,67.941,99.9Z" fill="#eeaa59"/>
        <path id="Path_107" data-name="Path 107" d="M79.757,96.685a2.171,2.171,0,0,1-2.878,1.077h0a2.174,2.174,0,0,1-1.08-2.878l3.417-7.518a2.175,2.175,0,0,1,2.878-1.08h0a2.175,2.175,0,0,1,1.08,2.878Z" fill="#f6b968"/>
        <path id="Path_108" data-name="Path 108" d="M71.434,102.03c-1.044.6-5.008,1.719-5.6.678l-1.077-.907c-.593-1.044.45-1.314,1.494-1.914L76.453,94.16a2.173,2.173,0,0,1,2.966.809h0a2.175,2.175,0,0,1-.809,2.966Z" fill="#f6b968"/>
        <path id="Path_109" data-name="Path 109" d="M71.5,100.135l7.159-3.955a2.187,2.187,0,0,0,.615-.508,2.143,2.143,0,0,0,.538-.7l3.435-7.216a1.955,1.955,0,0,0,.176-1.1L78.769,94.4l-11.019,6.775A12.458,12.458,0,0,0,71.5,100.135Z" fill="#eeaa59"/>
        <path id="Path_110" data-name="Path 110" d="M83.518,96.724A2.175,2.175,0,0,1,80.64,97.8h0a2.174,2.174,0,0,1-1.08-2.878l3.42-7.518a2.172,2.172,0,0,1,2.878-1.08h0a2.173,2.173,0,0,1,1.08,2.878Z" fill="#f6b968"/>
        <path id="Path_111" data-name="Path 111" d="M75.2,102.07c-1.044.6-5.008,1.722-5.6.678l-1.077-.907c-.593-1.04.45-1.317,1.491-1.911L80.214,94.2a2.172,2.172,0,0,1,2.963.809h0a2.169,2.169,0,0,1-.809,2.963Z" fill="#f6b968"/>
        <path id="Path_112" data-name="Path 112" d="M81.485,102.7a2.967,2.967,0,0,1-4.1-.754h0a2.77,2.77,0,0,1,.3-4l9.522-7.3c1.424-.943,3.35-1.6,4.317-.344,1.253,1.622-.183,3.359-1.8,4.874Z" fill="#ffcc90"/>
        <path id="Path_113" data-name="Path 113" d="M77.679,97.941c-1.229.615-12.4,2.747-13.73.761-1.749-2.6-1.089-4.208,1.18-6.413a71.2,71.2,0,0,0,5.227-4.959c4.956-5.485,2.842-6.465,1.719-7.344-2.041-1.594-7.274,5.111-10.742,6.55-4.685,1.941-10.84,4.268-10.84,4.268L39.766,88.273l-2.893,13.392s25.382,6.727,26.721,6.6c1.2-.116,14.4-3.128,17.852-5.537l-3.468-5.065A1.012,1.012,0,0,1,77.679,97.941Z" fill="#ffcc90"/>
        <rect id="Rectangle_18" data-name="Rectangle 18" width="23.355" height="7.663" transform="matrix(0.223, -0.975, 0.975, 0.223, 34.38, 108.963)" fill="#f2ebec"/>
        <path id="Path_114" data-name="Path 114" d="M28.929,108.708a1.542,1.542,0,0,0-.478-.5l.338-1.4a.537.537,0,1,0-1.044-.253l-.338,1.4a1.546,1.546,0,1,0,1.521.761Z" fill="#a83a48"/>
        <path id="Path_115" data-name="Path 115" d="M24.089,106.8l.341-1.4a.538.538,0,0,0-1.047-.253l-.338,1.4a1.546,1.546,0,1,0,1.518.758A1.532,1.532,0,0,0,24.089,106.8Z" fill="#a83a48"/>
        <path id="Path_116" data-name="Path 116" d="M19.669,105.358l.341-1.4a.537.537,0,0,0-1.044-.253l-.338,1.4a1.532,1.532,0,0,0-.6.2,1.549,1.549,0,1,0,2.114.563A1.5,1.5,0,0,0,19.669,105.358Z" fill="#a83a48"/>
        <path id="Path_117" data-name="Path 117" d="M22.58,106.956a1.529,1.529,0,1,0,2.09.551A1.528,1.528,0,0,0,22.58,106.956Z" fill="#702730"/>
        <path id="Path_118" data-name="Path 118" d="M18.187,105.556a1.529,1.529,0,1,0,2.09.554A1.531,1.531,0,0,0,18.187,105.556Z" fill="#702730"/>
        <path id="Path_119" data-name="Path 119" d="M26.934,108.343a1.53,1.53,0,1,0,2.09.557A1.528,1.528,0,0,0,26.934,108.343Z" fill="#702730"/>
        <path id="Path_120" data-name="Path 120" d="M72.313,82.757a6.914,6.914,0,0,0-.919-1.071h0l0,0s0,0-.006-.006h0a6.642,6.642,0,0,0-1.12-.855c-.648.685-1.628,1.695-1.609,2.464a1.179,1.179,0,0,0,.429.831v0s0,0,0,.006,0,.006.006.006l0,0a1.19,1.19,0,0,0,.855.377C70.713,84.482,71.665,83.442,72.313,82.757Z" fill="#ffe0bc"/>
        <path id="Path_121" data-name="Path 121" d="M91.3,93.022a2.723,2.723,0,0,0-.542-.7h0s0,0,0,0,0,0-.006,0h0a2.725,2.725,0,0,0-.745-.484,7.418,7.418,0,0,0-1.768,2.309.579.579,0,0,0,.189.593h0a0,0,0,0,0,0,0s0,0,0,0l0,0a.617.617,0,0,0,.621.146A7.432,7.432,0,0,0,91.3,93.022Z" fill="#ffe0bc"/>
        <path id="Path_122" data-name="Path 122" d="M64.4,86.453c.073-.064.243,0,.377.155l1.576,1.743c.137.152.186.326.116.392h0c-.073.064-.24,0-.377-.158l-1.576-1.74c-.137-.149-.189-.329-.116-.392Z" fill="#ffe0bc"/>
        <path id="Path_123" data-name="Path 123" d="M64.947,85.964c.073-.064.243,0,.38.152L66.9,87.859c.137.152.189.329.116.392h0c-.073.067-.243-.006-.38-.155l-1.573-1.743c-.14-.149-.192-.329-.119-.389Z" fill="#ffe0bc"/>
        <path id="Path_124" data-name="Path 124" d="M79.347,100.938c.082-.052.216.009.3.137l.955,1.466c.082.128.082.274,0,.322h0c-.082.055-.216-.009-.3-.137l-.955-1.466c-.082-.122-.079-.268,0-.322Z" fill="#ffe0bc"/>
        <path id="Path_125" data-name="Path 125" d="M79.967,100.549c.082-.052.219.009.3.134l.955,1.466c.082.128.082.274,0,.326h0c-.082.052-.216-.009-.3-.137l-.955-1.466c-.085-.125-.085-.271,0-.322Z" fill="#ffe0bc"/>
      </g>
    </g>
  </g>
</svg>
