<svg xmlns="http://www.w3.org/2000/svg" xmlns:xlink="http://www.w3.org/1999/xlink" width="132" height="132" viewBox="0 0 132 132">
  <defs>
    <clipPath id="clip-path">
      <rect id="Rectangle_11" data-name="Rectangle 11" width="132" height="132" rx="20" transform="translate(83 653)" fill="#f6f6f6"/>
    </clipPath>
  </defs>
  <g id="Mask_Group_1" data-name="Mask Group 1" transform="translate(-83 -653)" clip-path="url(#clip-path)">
    <g id="Easy_to_use" data-name="Easy to use" transform="translate(70.989 633.609)">
      <path id="Path_7" data-name="Path 7" d="M108.454,75.5s-7.208,14.421-14.531,24.375c-2.914,3.962-5.845,7.216-8.347,8.573a19.931,19.931,0,0,0-6.238,5.678,45.56,45.56,0,0,0-6.494,13.331L54.12,99.128s.639-27.69,2.887-32.322c3.277-6.75,4.86-20.388,6.118-23.1.934-2.014,3.6-12.419,3.857-13.183a2.54,2.54,0,0,1,2.151-.833,3.353,3.353,0,0,1,2.891,2.73,31.117,31.117,0,0,1-.381,15.68c.706,7.135-1.417,12.431.072,13.834.055.052.158.027.3-.066,2.581-1.658,18.6-25.014,20.576-25.518C94.678,35.814,108.454,75.5,108.454,75.5Z" fill="#efa26f"/>
      <path id="Path_8" data-name="Path 8" d="M78.476,121.848s-.255,12.588-.985,29.542H30.262c10.8-23.022,20.182-42.4,20.182-42.4S77.336,109.814,78.476,121.848Z" fill="#f99746"/>
      <path id="Path_9" data-name="Path 9" d="M124.825,26.692l-5.8,8.5-5.69,8.342a1.3,1.3,0,0,1-1.183.522c-1.366-.129-3.055-2.1-4.371-3.189l-.133-.11a4.107,4.107,0,0,1-.545-5.766l8.7-10.513h0l2.58-3.117a4.107,4.107,0,0,1,5.766-.545l.133.11A4.107,4.107,0,0,1,124.825,26.692Z" fill="#ffb27d"/>
      <path id="Path_10" data-name="Path 10" d="M119.027,35.192l-5.69,8.342a1.3,1.3,0,0,1-1.183.522L115.8,24.478C115.808,24.588,116.428,33.373,119.027,35.192Z" fill="#efa26f"/>
      <path id="Path_11" data-name="Path 11" d="M93.923,99.873c-2.914,3.962-5.845,7.216-8.347,8.573a19.931,19.931,0,0,0-6.238,5.678c-1.973-.92-4.223-2-6.422-3.068a3.662,3.662,0,0,1-.157-6.512l.076-.042c2.458-1.406,4.975-6.371,4.975-6.371Z" fill="#d38254"/>
      <path id="Path_12" data-name="Path 12" d="M66.85,30.95l-1.517,6.125a3.216,3.216,0,0,0,2.178.121C68.364,36.775,69.058,31.28,66.85,30.95Z" fill="#ffc197"/>
      <g id="Group_6" data-name="Group 6">
        <path id="Path_13" data-name="Path 13" d="M110.481,102.767H77.857a5.852,5.852,0,0,1-5.835-5.835V25.226a5.852,5.852,0,0,1,5.835-5.835h32.623a5.852,5.852,0,0,1,5.835,5.835V96.933A5.853,5.853,0,0,1,110.481,102.767Z" fill="#2b478b"/>
        <g id="Group_5" data-name="Group 5">
          <path id="Path_14" data-name="Path 14" d="M114.119,25.777V95.823a4.317,4.317,0,0,1-4.289,4.32H78.505a4.317,4.317,0,0,1-4.288-4.32V25.777a4.317,4.317,0,0,1,4.288-4.32H109.83A4.317,4.317,0,0,1,114.119,25.777Z" fill="#c0d8fb"/>
          <path id="Path_15" data-name="Path 15" d="M109.831,21.457,78.894,100.143h-.388a4.317,4.317,0,0,1-4.288-4.32V25.777a4.317,4.317,0,0,1,4.288-4.32Z" fill="#cbe1fd"/>
        </g>
        <path id="Path_16" data-name="Path 16" d="M100.715,24.062H87.623a1.945,1.945,0,0,1-1.939-1.939v-.305a1.945,1.945,0,0,1,1.939-1.939h13.092a1.945,1.945,0,0,1,1.939,1.939v.305A1.945,1.945,0,0,1,100.715,24.062Z" fill="#2b478b"/>
      </g>
      <g id="Group_7" data-name="Group 7">
        <path id="Path_17" data-name="Path 17" d="M121.939,58.793l-.864.329-5.815,2.21a3.815,3.815,0,0,1-.412.131,3.972,3.972,0,0,1-4.7-2.426l-.086-.223a3.972,3.972,0,0,1,2.3-5.109l5.421-2.06.394-.15.864-.329a3.971,3.971,0,0,1,5.108,2.3l.086.223A3.971,3.971,0,0,1,121.939,58.793Z" fill="#ffb27d"/>
        <path id="Path_18" data-name="Path 18" d="M117.217,58.926a23.155,23.155,0,0,1-3.667,1.155,1.546,1.546,0,0,1-1.213-.607,3.587,3.587,0,0,1-.731-1.319,4.172,4.172,0,0,1-.2-.842,3.552,3.552,0,0,1,.032-1,1,1,0,0,1,.555-.715l0,0a23.028,23.028,0,0,1,3.527-1.383,1.532,1.532,0,0,1,1.9.849l.122.334.624,1.709A1.465,1.465,0,0,1,117.217,58.926Z" fill="#ffd3b6"/>
        <path id="Path_19" data-name="Path 19" d="M117.217,58.926a23.155,23.155,0,0,1-3.667,1.155,1.546,1.546,0,0,1-1.213-.607c-.049-.114-.094-.234-.136-.363a4.172,4.172,0,0,1-.2-.842,3.553,3.553,0,0,1,.032-1,1,1,0,0,1,.555-.715l0,0a23.027,23.027,0,0,1,3.527-1.383,1.671,1.671,0,0,1,1.428.226l.624,1.709A1.465,1.465,0,0,1,117.217,58.926Z" fill="#ffc197"/>
      </g>
      <g id="Group_8" data-name="Group 8">
        <path id="Path_20" data-name="Path 20" d="M119.3,66.967l-4.484,1.221a2.575,2.575,0,0,1-3.152-1.8l-.139-.507a2.575,2.575,0,0,1,1.8-3.152l4.484-1.221a2.575,2.575,0,0,1,3.152,1.8l.139.507A2.575,2.575,0,0,1,119.3,66.967Z" fill="#ffb27d"/>
        <path id="Path_21" data-name="Path 21" d="M116.875,66.747a20.18,20.18,0,0,1-3.093.65,1.511,1.511,0,0,1-1.223-.97,3.393,3.393,0,0,1-.329-1.291,2.584,2.584,0,0,1,.1-.768.8.8,0,0,1,.507-.512l0,0a20.018,20.018,0,0,1,3-.836,1.269,1.269,0,0,1,1.5.775l.116.4.345,1.213A1.138,1.138,0,0,1,116.875,66.747Z" fill="#ffd3b6"/>
        <path id="Path_22" data-name="Path 22" d="M116.875,66.747a20.18,20.18,0,0,1-3.093.65,1.511,1.511,0,0,1-1.223-.97,2.831,2.831,0,0,1-.09-.618,2.563,2.563,0,0,1,.1-.768.8.8,0,0,1,.507-.512l0,0a19.84,19.84,0,0,1,3-.834,1.354,1.354,0,0,1,1.373.5l.345,1.213A1.138,1.138,0,0,1,116.875,66.747Z" fill="#ffc197"/>
      </g>
      <path id="Path_23" data-name="Path 23" d="M45.846,118.543s9.23,8.84,15.451,12.253l4.711-3.341v4.929s9.264,1.638,12.187,0V118.943L52.173,105.9Z" fill="#ed7d2b"/>
      <path id="Path_24" data-name="Path 24" d="M54.12,98.13s-5.861,8.768-11.686,18.143c0,0,12.276,8.445,18.931,10.922l8.73-10L68.85,129.233s7.725,2.816,11.31,2.081c0,0-.226-10.918-.224-18.072C79.935,113.241,58.7,107.288,54.12,98.13Z" fill="#f3f8ff"/>
      <path id="Path_25" data-name="Path 25" d="M55.561,120.381A1.453,1.453,0,1,1,57,121.848,1.453,1.453,0,0,1,55.561,120.381Z" fill="#f99746"/>
      <g id="Group_9" data-name="Group 9">
        <path id="Path_26" data-name="Path 26" d="M121.8,50.2l-.1.033-5.879,1.509a4.86,4.86,0,0,1-5.941-3.108l-.35-1.216a4.507,4.507,0,0,1,3.156-5.434l1.941-.5,3.938-1.011a4.858,4.858,0,0,1,5.94,3.108l.35,1.216A4.5,4.5,0,0,1,121.8,50.2Z" fill="#ffb27d"/>
        <path id="Path_27" data-name="Path 27" d="M119.1,48.558l-2.856,1.287-.018,0a2.975,2.975,0,0,1-.345.071c-.048.008-.1.013-.145.018a.323.323,0,0,1-.061,0,.454.454,0,0,1-.394-.642,2.834,2.834,0,0,0,.161-1.936l-.068-.249a.015.015,0,0,0,0-.008l-.221-.811a3.043,3.043,0,0,0-1.036-1.578c-.058-.048-.119-.092-.181-.135a.82.82,0,0,1,.24-1.46l.018-.005,3.135-.474a1.492,1.492,0,0,1,1.733,1.16l.252.923.536,1.97C120.062,47.47,119.878,48.347,119.1,48.558Z" fill="#ffd3b6"/>
        <path id="Path_28" data-name="Path 28" d="M119.1,48.558l-2.856,1.287-.018,0c-.067.013-.276.048-.55.09a.454.454,0,0,1-.394-.642,2.834,2.834,0,0,0,.161-1.936l-.068-.249a.015.015,0,0,0,0-.008l-.221-.811a3.043,3.043,0,0,0-1.036-1.578.8.8,0,0,1,.45-.32l.018-.005,3.135-.474a1.426,1.426,0,0,1,1.594.809l.536,1.97C120.062,47.47,119.878,48.347,119.1,48.558Z" fill="#ffc197"/>
      </g>
      <path id="Path_29" data-name="Path 29" d="M72.023,80.776S70.74,69.581,69.557,67.4s-2.185-6.555-.364-9.8,2.45-9.5,2.45-9.5c.706,7.135-1.417,12.431.072,13.834.055.052.158.027.3-.066Z" fill="#d38254"/>
    </g>
  </g>
</svg>
