<svg xmlns="http://www.w3.org/2000/svg" xmlns:xlink="http://www.w3.org/1999/xlink" width="132" height="132" viewBox="0 0 132 132">
  <defs>
    <clipPath id="clip-path">
      <rect id="Rectangle_14" data-name="Rectangle 14" width="132" height="132" rx="20" transform="translate(818 653)" fill="#f6f6f6"/>
    </clipPath>
    <clipPath id="clip-path-2">
      <circle id="Ellipse_5" data-name="Ellipse 5" cx="33.704" cy="33.704" r="33.704" transform="translate(95.305 45.5)"/>
    </clipPath>
  </defs>
  <g id="Mask_Group_3" data-name="Mask Group 3" transform="translate(-818 -653)" clip-path="url(#clip-path)">
    <g id="business_people_1_" transform="translate(756.921 624.77)">
      <g id="mobile_screen">
        <g id="Group_32" data-name="Group 32">
          <g id="coin">
            <circle id="Ellipse_2" data-name="Ellipse 2" cx="35.345" cy="35.345" r="35.345" transform="translate(75.166 78.215) rotate(-45)" fill="#ddad25"/>
            <circle id="Ellipse_3" data-name="Ellipse 3" cx="35.345" cy="35.345" r="35.345" transform="translate(79.023 79.205) rotate(-45)" fill="#ffee60"/>
            <g id="Group_29" data-name="Group 29">
              <g id="Group_28" data-name="Group 28">
                <circle id="Ellipse_4" data-name="Ellipse 4" cx="33.704" cy="33.704" r="33.704" transform="translate(95.305 45.5)" fill="#ffd329"/>
                <g id="Group_26" data-name="Group 26" clip-path="url(#clip-path-2)">
                  <path id="Path_73" data-name="Path 73" d="M155.045,75.312a26.426,26.426,0,1,0-.545,10.433A26.248,26.248,0,0,0,155.045,75.312Zm-8.9,16.938a21.643,21.643,0,1,1,3.716-7.7A21.491,21.491,0,0,1,146.148,92.25Z" fill="#ddad25"/>
                </g>
                <g id="Group_27" data-name="Group 27" clip-path="url(#clip-path-2)">
                  <path id="Path_74" data-name="Path 74" d="M137.334,82.763a5.561,5.561,0,0,0-2.611-2.495,4.88,4.88,0,0,0,2.4-.754,4.445,4.445,0,0,0,1.813-2.653,4.6,4.6,0,0,0-.614-3.793,6.259,6.259,0,0,0-3.917-2.473l-1.164-.3.794-3.094-3.03-.778-.794,3.094-.94-.241.794-3.094-3.03-.778-.794,3.094-4.471-1.148L121,70.383l2.293.588-3.38,13.173-2.293-.588-.778,3.03,4.471,1.147-.671,2.616,3.03.778.671-2.616.94.241-.671,2.616,3.03.778.671-2.616.3.077a26.893,26.893,0,0,0,2.731.421,6.5,6.5,0,0,0,2.418-.051,5.284,5.284,0,0,0,2.387-1.4,5.418,5.418,0,0,0,1.386-2.511A4.859,4.859,0,0,0,137.334,82.763Zm-9.055-9.588,2.624.673a3.013,3.013,0,0,1,1.774.958,1.7,1.7,0,0,1,.208,1.451,1.8,1.8,0,0,1-.9,1.244,3.065,3.065,0,0,1-2.058-.018l-2.584-.663Zm2.46,11.992a3.444,3.444,0,0,1-2.3-.011l-3.031-.778,1-3.9,3.017.774a3.6,3.6,0,0,1,2.051,1.079,1.748,1.748,0,0,1,.271,1.531A1.893,1.893,0,0,1,130.739,85.168Z" fill="#ddad25"/>
                </g>
              </g>
            </g>
          </g>
          <g id="earnings">
            <g id="Group_31" data-name="Group 31">
              <path id="Path_75" data-name="Path 75" d="M166.225,160.23H87.937A5.744,5.744,0,0,1,82.21,154.5V97.095a5.744,5.744,0,0,1,5.728-5.728h78.287a5.744,5.744,0,0,1,5.728,5.728V154.5A5.745,5.745,0,0,1,166.225,160.23Z" fill="#603813"/>
              <path id="Path_76" data-name="Path 76" d="M162.115,156.788h-3.083a.492.492,0,0,1,0-.983h3.083a5.328,5.328,0,0,0,.779-.057.492.492,0,0,1,.141.974A6.521,6.521,0,0,1,162.115,156.788Zm-7.019,0h-3.937a.492.492,0,1,1,0-.983H155.1a.492.492,0,0,1,0,.983Zm-7.873,0h-3.937a.492.492,0,0,1,0-.983h3.937a.492.492,0,1,1,0,.983Zm-7.872,0h-3.937a.492.492,0,0,1,0-.983h3.937a.492.492,0,0,1,0,.983Zm-7.873,0h-3.936a.492.492,0,0,1,0-.983h3.936a.492.492,0,0,1,0,.983Zm-7.872,0h-3.936a.492.492,0,1,1,0-.983h3.936a.492.492,0,1,1,0,.983Zm-7.873,0H111.8a.492.492,0,1,1,0-.983h3.936a.492.492,0,0,1,0,.983Zm-7.872,0h-3.936a.492.492,0,1,1,0-.983h3.936a.492.492,0,1,1,0,.983Zm-7.872,0H96.051a.492.492,0,0,1,0-.983h3.937a.492.492,0,1,1,0,.983Zm-7.872,0h-.068a6.329,6.329,0,0,1-3.953-1.371.492.492,0,1,1,.609-.772,5.353,5.353,0,0,0,3.344,1.16.522.522,0,0,1,.526.492A.463.463,0,0,1,92.116,156.788Zm74.277-1.84a.492.492,0,0,1-.356-.831A5.416,5.416,0,0,0,167.5,150.9a.5.5,0,0,1,.535-.445.493.493,0,0,1,.445.535,6.406,6.406,0,0,1-1.733,3.809A.488.488,0,0,1,166.393,154.948Zm-80.084-2.676a.492.492,0,0,1-.478-.377,6.361,6.361,0,0,1-.178-1.5v-2.535a.492.492,0,0,1,.983,0v2.535a5.434,5.434,0,0,0,.151,1.271.493.493,0,0,1-.362.594A.607.607,0,0,1,86.309,152.272Zm81.708-4.775a.491.491,0,0,1-.492-.492v-3.936a.492.492,0,1,1,.983,0v3.936A.491.491,0,0,1,168.017,147.5Zm-81.872-3.084a.491.491,0,0,1-.492-.492v-3.936a.492.492,0,1,1,.983,0v3.936A.491.491,0,0,1,86.145,144.413Zm81.872-4.788a.491.491,0,0,1-.492-.492V135.2a.492.492,0,0,1,.983,0v3.937A.491.491,0,0,1,168.017,139.625Zm-81.872-3.084a.491.491,0,0,1-.492-.492v-3.936a.492.492,0,0,1,.983,0v3.936A.491.491,0,0,1,86.145,136.541Zm81.872-4.789a.491.491,0,0,1-.492-.492v-3.936a.492.492,0,1,1,.983,0v3.936A.491.491,0,0,1,168.017,131.752Zm-81.872-3.083a.491.491,0,0,1-.492-.492v-3.937a.492.492,0,0,1,.983,0v3.937A.491.491,0,0,1,86.145,128.669Zm81.872-4.789a.491.491,0,0,1-.492-.492v-3.936a.492.492,0,1,1,.983,0v3.936A.492.492,0,0,1,168.017,123.88ZM86.145,120.8a.491.491,0,0,1-.492-.492v-3.936a.492.492,0,1,1,.983,0V120.3A.491.491,0,0,1,86.145,120.8Zm81.872-4.789a.491.491,0,0,1-.492-.492v-3.936a.492.492,0,1,1,.983,0v3.936A.491.491,0,0,1,168.017,116.007Zm-81.872-3.083a.491.491,0,0,1-.492-.492V108.5a.492.492,0,1,1,.983,0v3.936A.491.491,0,0,1,86.145,112.924Zm81.872-4.789a.491.491,0,0,1-.492-.492v-3.936a.492.492,0,1,1,.983,0v3.936A.491.491,0,0,1,168.017,108.135Zm-81.872-3.084a.491.491,0,0,1-.492-.492v-3.354c0-.212.011-.423.031-.629a.5.5,0,0,1,.538-.442.492.492,0,0,1,.441.538q-.026.264-.026.533v3.354A.491.491,0,0,1,86.145,105.051Zm81.7-4.774a.492.492,0,0,1-.477-.373,5.436,5.436,0,0,0-1.933-2.967.492.492,0,1,1,.6-.776,6.43,6.43,0,0,1,2.283,3.508.492.492,0,0,1-.359.6A.568.568,0,0,1,167.844,100.278ZM87.792,97.611a.492.492,0,0,1-.354-.833,6.405,6.405,0,0,1,3.726-1.9.492.492,0,1,1,.134.974,5.419,5.419,0,0,0-3.152,1.612A.5.5,0,0,1,87.792,97.611Zm74.288-1.816h-3.937a.492.492,0,1,1,0-.983h3.937a.492.492,0,0,1,0,.983Zm-7.872,0h-3.937a.492.492,0,0,1,0-.983h3.937a.492.492,0,0,1,0,.983Zm-7.872,0H142.4a.492.492,0,0,1,0-.983h3.937a.492.492,0,1,1,0,.983Zm-7.873,0h-3.936a.492.492,0,0,1,0-.983h3.936a.492.492,0,0,1,0,.983Zm-7.872,0h-3.936a.492.492,0,0,1,0-.983h3.936a.492.492,0,1,1,0,.983Zm-7.873,0h-3.936a.492.492,0,1,1,0-.983h3.936a.492.492,0,1,1,0,.983Zm-7.872,0H110.91a.492.492,0,1,1,0-.983h3.936a.492.492,0,1,1,0,.983Zm-7.872,0h-3.937a.492.492,0,1,1,0-.983h3.937a.492.492,0,0,1,0,.983Zm-7.872,0H95.164a.492.492,0,1,1,0-.983H99.1a.492.492,0,1,1,0,.983Z" fill="#382009"/>
              <g id="Group_30" data-name="Group 30">
                <path id="Path_77" data-name="Path 77" d="M152.277,140.556h19.675V111.043H152.277a4.933,4.933,0,0,0-4.919,4.919v19.675A4.933,4.933,0,0,0,152.277,140.556Z" fill="#703f12"/>
                <circle id="Ellipse_7" data-name="Ellipse 7" cx="4.632" cy="4.632" r="4.632" transform="translate(151.785 121.167)" fill="#ffd400"/>
              </g>
            </g>
          </g>
        </g>
      </g>
    </g>
  </g>
</svg>
